<?xml version="1.0" encoding="utf-8"?>
<!-- Generator: Adobe Illustrator 19.1.0, SVG Export Plug-In . SVG Version: 6.00 Build 0)  -->
<svg version="1.1" id="Layer_1" xmlns="http://www.w3.org/2000/svg" xmlns:xlink="http://www.w3.org/1999/xlink" x="0px" y="0px"
	 viewBox="0 0 221 45" style="enable-background:new 0 0 221 45;" xml:space="preserve">
<g>
	<path d="M150.2,30.4c0,0.1,0.2,0.1,0.2,0.1c0.1-0.1,1.3-1.6,1.7-3c0.1-0.4,0.7-2.5,0.7-2.5c0.3,0.6,1.3,1.1,2.3,1.1
		c3,0,5.1-2.7,5.1-6.3c0-2.7-2.4-5.2-6-5.2c-4.5,0-6.8,3.1-6.8,5.7c0,1.6,0.6,3,1.9,3.5c0.2,0.1,0.4,0,0.5-0.2
		c0-0.2,0.1-0.6,0.2-0.7c0.1-0.2,0-0.3-0.1-0.5c-0.4-0.4-0.6-1-0.6-1.8c0-2.3,1.8-4.4,4.7-4.4c2.5,0,3.9,1.5,3.9,3.5
		c0,2.6-1.2,4.9-3,4.9c-1,0-1.7-0.8-1.5-1.8c0.3-1.2,0.8-2.4,0.8-3.2c0-0.7-0.4-1.4-1.3-1.4c-1,0-1.8,1-1.8,2.4
		c0,0.9,0.3,1.4,0.3,1.4s-1,4.2-1.2,5C149.9,28.4,150.2,30.2,150.2,30.4z"/>
</g>
<g>
	<path d="M72.4,16c-0.7,0.4-1.4,0.7-2.2,0.8c-0.6-0.7-1.5-1.1-2.5-1.1c-1.9,0-3.4,1.5-3.4,3.4c0,0.3,0,0.5,0.1,0.8
		c-2.9-0.1-5.4-1.5-7.1-3.5c-0.3,0.5-0.5,1.1-0.5,1.7c0,1.2,0.6,2.2,1.5,2.8c-0.6,0-1.1-0.2-1.6-0.4c0,0,0,0,0,0
		c0,1.6,1.2,3,2.8,3.3C59.2,24,58.9,24,58.6,24c-0.2,0-0.4,0-0.6-0.1c0.4,1.3,1.7,2.3,3.2,2.4c-1.2,0.9-2.7,1.5-4.3,1.5
		c-0.3,0-0.6,0-0.8,0c1.5,1,3.3,1.5,5.3,1.5c6.3,0,9.8-5.2,9.8-9.7c0-0.1,0-0.3,0-0.4c0.7-0.5,1.3-1.1,1.7-1.8
		c-0.6,0.3-1.3,0.5-2,0.5C71.6,17.5,72.2,16.8,72.4,16z"/>
</g>
<g>
	<path d="M19.7,31.4h3.2c0,0,0-4.4,0-7.9h2.4l0.3-3.2H23v-1.3c0-0.6,0.4-0.8,0.7-0.8c0.3,0,1.8,0,1.8,0v-2.7l-2.4,0
		c-2.7,0-3.3,2-3.3,3.3v1.4h-1.6v3.2h1.6C19.7,27.1,19.7,31.4,19.7,31.4z"/>
</g>
<g>
	<path d="M106.9,27.9c0.1,0.4,0.4,0.7,0.7,1c0.3,0.3,0.8,0.6,1.3,0.7c0.5,0.2,0.9,0.3,1.5,0.3c0.6,0,1.1-0.1,1.6-0.2
		c0.5-0.1,1-0.3,1.6-0.6v-2.3c-0.7,0.5-1.4,0.7-2.1,0.7c-0.4,0-0.8-0.1-1.1-0.3c-0.2-0.1-0.5-0.4-0.5-0.6c-0.1-0.2-0.1-0.7-0.1-1.6
		v-3.8h3.3v-2.6h-3.3v-3.4h-2c-0.1,0.8-0.3,1.4-0.5,1.9c-0.2,0.5-0.6,0.9-0.9,1.3c-0.4,0.4-1,0.6-1.6,0.8v2.1h1.9v5.2
		C106.7,27,106.7,27.5,106.9,27.9z"/>
</g>
<polygon points="205.4,17.2 191.6,17.2 198.5,23.2 "/>
<polygon points="200.5,22.8 205.9,27.2 205.9,18.1 "/>
<polygon points="199.8,23.5 198.5,24.6 197.2,23.4 192,27.8 205,27.8 "/>
<polygon points="196.4,22.8 191.1,18.1 191.1,27.2 "/>
</svg>
