<?xml version="1.0" encoding="utf-8"?>
<!-- Generator: Adobe Illustrator 19.1.0, SVG Export Plug-In . SVG Version: 6.00 Build 0)  -->
<svg version="1.1" id="Layer_1" xmlns="http://www.w3.org/2000/svg" xmlns:xlink="http://www.w3.org/1999/xlink" x="0px" y="0px"
	 viewBox="-863 746 320 45" style="enable-background:new -863 746 320 45;" xml:space="preserve">
<style type="text/css">
	.st0{fill:#3B5999;}
	.st1{fill:#55ACEF;}
	.st2{fill:#0F4260;}
	.st3{fill:#CB2028;}
	.st4{fill:#727272;}
	.st5{fill:#FFFFFF;}
</style>
<g>
	<path class="st0" d="M-806,746h-50c-2.8,0-5,2.2-5,5v35c0,2.8,2.2,5,5,5h50c2.8,0,5-2.2,5-5v-35C-801,748.2-803.2,746-806,746z"/>
</g>
<rect x="-863" y="680.9" class="st0" width="64.1" height="45"/>
<g>
	<path class="st1" d="M-742,746h-50c-2.8,0-5,2.2-5,5v35c0,2.8,2.2,5,5,5h50c2.8,0,5-2.2,5-5v-35C-737,748.2-739.2,746-742,746z"/>
</g>
<g>
	<path class="st2" d="M-678,746h-50c-2.8,0-5,2.2-5,5v35c0,2.8,2.2,5,5,5h50c2.8,0,5-2.2,5-5v-35C-673,748.2-675.3,746-678,746z"/>
</g>
<g>
	<path class="st3" d="M-614.1,746h-50c-2.8,0-5,2.2-5,5v35c0,2.8,2.2,5,5,5h50c2.8,0,5-2.2,5-5v-35
		C-609.1,748.2-611.3,746-614.1,746z"/>
</g>
<g>
	<path class="st4" d="M-550.1,746h-50c-2.8,0-5,2.2-5,5v35c0,2.8,2.2,5,5,5h50c2.8,0,5-2.2,5-5v-35
		C-545.1,748.2-547.3,746-550.1,746z"/>
</g>
<g>
	<path class="st5" d="M-642.6,776.4c0,0.1,0.2,0.1,0.2,0.1c0.1-0.1,1.3-1.6,1.7-3c0.1-0.4,0.7-2.5,0.7-2.5c0.3,0.6,1.3,1.1,2.3,1.1
		c3,0,5.1-2.7,5.1-6.3c0-2.7-2.4-5.2-6-5.2c-4.5,0-6.8,3.1-6.8,5.7c0,1.6,0.6,3,1.9,3.5c0.2,0.1,0.4,0,0.5-0.2
		c0-0.2,0.1-0.6,0.2-0.7c0.1-0.2,0-0.3-0.1-0.5c-0.4-0.4-0.6-1-0.6-1.8c0-2.3,1.8-4.4,4.7-4.4c2.5,0,3.9,1.5,3.9,3.5
		c0,2.6-1.2,4.9-3,4.9c-1,0-1.7-0.8-1.5-1.8c0.3-1.2,0.8-2.4,0.8-3.2c0-0.7-0.4-1.4-1.3-1.4c-1,0-1.8,1-1.8,2.4
		c0,0.9,0.3,1.4,0.3,1.4s-1,4.2-1.2,5C-643,774.4-642.7,776.2-642.6,776.4z"/>
</g>
<g>
	<path class="st5" d="M-759.1,762c-0.7,0.4-1.4,0.7-2.2,0.8c-0.6-0.7-1.5-1.1-2.5-1.1c-1.9,0-3.4,1.5-3.4,3.4c0,0.3,0,0.5,0.1,0.8
		c-2.9-0.1-5.4-1.5-7.1-3.5c-0.3,0.5-0.5,1.1-0.5,1.7c0,1.2,0.6,2.2,1.5,2.8c-0.6,0-1.1-0.2-1.6-0.4l0,0c0,1.6,1.2,3,2.8,3.3
		c-0.2,0.2-0.6,0.2-0.9,0.2c-0.2,0-0.4,0-0.6-0.1c0.4,1.3,1.7,2.3,3.2,2.4c-1.2,0.9-2.7,1.5-4.3,1.5c-0.3,0-0.6,0-0.8,0
		c1.5,1,3.3,1.5,5.3,1.5c6.3,0,9.8-5.2,9.8-9.7c0-0.1,0-0.3,0-0.4c0.7-0.5,1.3-1.1,1.7-1.8c-0.6,0.3-1.3,0.5-2,0.5
		C-759.9,763.5-759.3,762.8-759.1,762z"/>
</g>
<g>
	<path class="st5" d="M-833.1,777.4h3.2c0,0,0-4.4,0-7.9h2.4l0.3-3.2h-2.5V765c0-0.6,0.4-0.8,0.7-0.8s1.8,0,1.8,0v-2.7h-2.4
		c-2.7,0-3.3,2-3.3,3.3v1.4h-1.6v3.2h1.6C-833.1,773.1-833.1,777.4-833.1,777.4z"/>
</g>
<g>
	<path class="st5" d="M-705.3,773.9c0.1,0.4,0.4,0.7,0.7,1c0.3,0.3,0.8,0.6,1.3,0.7c0.5,0.2,0.9,0.3,1.5,0.3c0.6,0,1.1-0.1,1.6-0.2
		c0.5-0.1,1-0.3,1.6-0.6v-2.3c-0.7,0.5-1.4,0.7-2.1,0.7c-0.4,0-0.8-0.1-1.1-0.3c-0.2-0.1-0.5-0.4-0.5-0.6c-0.1-0.2-0.1-0.7-0.1-1.6
		v-3.8h3.3v-2.6h-3.3v-3.4h-2c-0.1,0.8-0.3,1.4-0.5,1.9c-0.2,0.5-0.6,0.9-0.9,1.3c-0.4,0.4-1,0.6-1.6,0.8v2.1h1.9v5.2
		C-705.5,773-705.4,773.5-705.3,773.9z"/>
</g>
<g>
	<polygon class="st5" points="-568.1,763.2 -581.9,763.2 -575,769.2 	"/>
	<polygon class="st5" points="-573,768.8 -567.6,773.2 -567.6,764.1 	"/>
	<polygon class="st5" points="-573.7,769.5 -575,770.6 -576.3,769.4 -581.5,773.8 -568.5,773.8 	"/>
	<polygon class="st5" points="-577.1,768.8 -582.4,764.1 -582.4,773.2 	"/>
</g>
<image style="overflow:visible;" width="65" height="347" xlink:href="../social_share3.png"  transform="matrix(0.3034 0 0 0.3034 -892.3023 731.1146)">
</image>
</svg>
