<?xml version="1.0" encoding="utf-8"?>
<!-- Generator: Adobe Illustrator 19.1.0, SVG Export Plug-In . SVG Version: 6.00 Build 0)  -->
<svg version="1.1" id="Layer_1" xmlns="http://www.w3.org/2000/svg" xmlns:xlink="http://www.w3.org/1999/xlink" x="0px" y="0px"
	 viewBox="-863 746 320 45" style="enable-background:new -863 746 320 45;" xml:space="preserve">
<style type="text/css">
	.st0{fill:#3B5999;}
	.st1{fill:#55ACEF;}
	.st2{fill:#0F4260;}
	.st3{fill:#CB2028;}
	.st4{fill:#727272;}
	.st5{fill:#FFFFFF;}
</style>
<g>
	<path class="st0" d="M-804.9,746.2h-49.3c-2.8,0-5,2.2-5,5v34.5c0,2.8,2.2,5,5,5h49.3c2.8,0,5-2.2,5-5v-34.5
		C-799.9,748.5-802.1,746.2-804.9,746.2z"/>
</g>
<rect x="-863" y="680.9" class="st0" width="64.1" height="45"/>
<g>
	<path class="st1" d="M-741.6,746.2H-791c-2.8,0-5,2.2-5,5v34.5c0,2.8,2.2,5,5,5h49.3c2.8,0,5-2.2,5-5v-34.5
		C-736.6,748.5-738.9,746.2-741.6,746.2z"/>
</g>
<g>
	<path class="st2" d="M-678.4,746.2h-49.3c-2.8,0-5,2.2-5,5v34.5c0,2.8,2.2,5,5,5h49.3c2.8,0,5-2.2,5-5v-34.5
		C-673.4,748.5-675.6,746.2-678.4,746.2z"/>
</g>
<g>
	<path class="st3" d="M-615.1,746.2h-49.3c-2.8,0-5,2.2-5,5v34.5c0,2.8,2.2,5,5,5h49.3c2.8,0,5-2.2,5-5v-34.5
		C-610.1,748.5-612.3,746.2-615.1,746.2z"/>
</g>
<g>
	<path class="st4" d="M-551.9,746.2h-49.3c-2.8,0-5,2.2-5,5v34.5c0,2.8,2.2,5,5,5h49.3c2.8,0,5-2.2,5-5v-34.5
		C-546.9,748.5-549.1,746.2-551.9,746.2z"/>
</g>
<g>
	<path class="st5" d="M-643.3,776.3c0,0.1,0.2,0.1,0.2,0.1c0.1-0.1,1.3-1.6,1.7-3c0.1-0.4,0.7-2.5,0.7-2.5c0.3,0.6,1.3,1.1,2.3,1.1
		c3,0,5-2.7,5-6.2c0-2.7-2.4-5.1-5.9-5.1c-4.5,0-6.7,3.1-6.7,5.6c0,1.6,0.6,3,1.9,3.5c0.2,0.1,0.4,0,0.5-0.2c0-0.2,0.1-0.6,0.2-0.7
		c0.1-0.2,0-0.3-0.1-0.5c-0.4-0.4-0.6-1-0.6-1.8c0-2.3,1.8-4.4,4.6-4.4c2.5,0,3.9,1.5,3.9,3.5c0,2.6-1.2,4.8-3,4.8
		c-1,0-1.7-0.8-1.5-1.8c0.3-1.2,0.8-2.4,0.8-3.2c0-0.7-0.4-1.4-1.3-1.4c-1,0-1.8,1-1.8,2.4c0,0.9,0.3,1.4,0.3,1.4s-1,4.2-1.2,4.9
		C-643.7,774.3-643.4,776.1-643.3,776.3z"/>
</g>
<g>
	<path class="st5" d="M-758.5,762.1c-0.7,0.4-1.4,0.7-2.2,0.8c-0.6-0.7-1.5-1.1-2.5-1.1c-1.9,0-3.4,1.5-3.4,3.4c0,0.3,0,0.5,0.1,0.8
		c-2.9-0.1-5.3-1.5-7-3.5c-0.3,0.5-0.5,1.1-0.5,1.7c0,1.2,0.6,2.2,1.5,2.8c-0.6,0-1.1-0.2-1.6-0.4l0,0c0,1.6,1.2,3,2.8,3.3
		c-0.2,0.2-0.6,0.2-0.9,0.2c-0.2,0-0.4,0-0.6-0.1c0.4,1.3,1.7,2.3,3.2,2.4c-1.2,0.9-2.7,1.5-4.3,1.5c-0.3,0-0.6,0-0.8,0
		c1.5,1,3.3,1.5,5.2,1.5c6.2,0,9.7-5.1,9.7-9.6c0-0.1,0-0.3,0-0.4c0.7-0.5,1.3-1.1,1.7-1.8c-0.6,0.3-1.3,0.5-2,0.5
		C-759.3,763.6-758.7,762.9-758.5,762.1z"/>
</g>
<g>
	<path class="st5" d="M-831.7,777.3h3.2c0,0,0-4.4,0-7.8h2.4l0.3-3.2h-2.5V765c0-0.6,0.4-0.8,0.7-0.8s1.8,0,1.8,0v-2.7h-2.4
		c-2.7,0-3.3,2-3.3,3.3v1.4h-1.6v3.2h1.6C-831.7,773-831.7,777.3-831.7,777.3z"/>
</g>
<g>
	<path class="st5" d="M-705.3,773.8c0.1,0.4,0.4,0.7,0.7,1c0.3,0.3,0.8,0.6,1.3,0.7c0.5,0.2,0.9,0.3,1.5,0.3s1.1-0.1,1.6-0.2
		c0.5-0.1,1-0.3,1.6-0.6v-2.3c-0.7,0.5-1.4,0.7-2.1,0.7c-0.4,0-0.8-0.1-1.1-0.3c-0.2-0.1-0.5-0.4-0.5-0.6c-0.1-0.2-0.1-0.7-0.1-1.6
		v-3.8h3.3v-2.6h-3.3v-3.4h-2c-0.1,0.8-0.3,1.4-0.5,1.9c-0.2,0.5-0.6,0.9-0.9,1.3c-0.4,0.4-1,0.6-1.6,0.8v2.1h1.9v5.1
		C-705.5,773-705.4,773.4-705.3,773.8z"/>
</g>
<g>
	<polygon class="st5" points="-569.6,763.3 -583.2,763.3 -576.4,769.2 	"/>
	<polygon class="st5" points="-574.4,768.8 -569.1,773.1 -569.1,764.1 	"/>
	<polygon class="st5" points="-575.1,769.5 -576.4,770.6 -577.7,769.4 -582.8,773.7 -570,773.7 	"/>
	<polygon class="st5" points="-578.5,768.8 -583.7,764.1 -583.7,773.1 	"/>
</g>
<image style="overflow:visible;" width="65" height="347" xlink:href="../social_share3.png"  transform="matrix(0.3034 0 0 0.3034 -892.3023 731.1146)">
</image>
</svg>
